<?xml version="1.0" standalone="no"?>
<!DOCTYPE svg PUBLIC "-//W3C//DTD SVG 20010904//EN"
 "http://www.w3.org/TR/2001/REC-SVG-20010904/DTD/svg10.dtd">
<svg version="1.0" xmlns="http://www.w3.org/2000/svg"
 width="486.000000pt" height="486.000000pt" viewBox="0 0 486.000000 486.000000"
 preserveAspectRatio="xMidYMid meet">
<metadata>
Created by potrace 1.11, written by Peter Selinger 2001-2013
</metadata>
<g transform="translate(0.000000,486.000000) scale(0.100000,-0.100000)"
fill="#000000" stroke="none">
<path d="M3143 4825 c-234 -90 -411 -329 -497 -670 -58 -233 -134 -630 -123
-641 5 -6 82 80 105 116 9 14 23 34 33 45 9 11 29 67 43 125 14 58 40 150 57
205 17 55 35 118 41 140 17 61 33 75 91 75 39 0 58 -6 84 -26 19 -14 36 -24
38 -23 2 2 24 45 49 94 43 83 45 91 29 102 -10 7 -23 16 -29 22 -20 16 -73 41
-89 41 -21 0 -28 21 -16 53 10 25 15 27 64 27 47 0 59 -4 94 -35 l41 -35 16
24 c8 14 17 30 18 36 2 7 31 70 65 142 35 71 66 140 69 154 3 13 10 27 15 30
54 33 -111 32 -198 -1z"/>
<path d="M3412 4762 c-11 -31 -25 -75 -32 -97 -7 -22 -43 -103 -80 -180 -37
-77 -76 -158 -86 -180 -10 -22 -46 -88 -81 -147 -35 -59 -63 -110 -63 -113 0
-4 -27 -44 -60 -91 -33 -46 -60 -89 -60 -94 0 -6 -4 -10 -10 -10 -5 0 -10 -5
-10 -11 0 -14 -204 -265 -253 -312 -22 -20 -38 -40 -35 -43 7 -7 116 49 172
88 125 87 228 149 242 146 9 -1 19 -9 22 -17 5 -16 -152 -171 -174 -171 -8 0
-14 -4 -14 -8 0 -5 -18 -17 -40 -27 -52 -23 -45 -29 16 -14 90 22 273 128 373
216 3 2 -7 16 -22 31 -106 105 -114 152 -25 137 30 -5 52 -19 84 -51 l42 -44
42 47 c115 130 209 304 241 444 22 99 24 243 5 315 -24 92 -79 176 -142 221
l-31 23 -21 -58z m58 -367 c0 -44 -22 -129 -45 -176 -24 -48 -127 -193 -146
-204 -24 -15 -21 10 10 83 19 42 45 104 58 137 32 80 43 103 70 148 27 43 53
49 53 12z"/>
<path d="M1758 4574 c-21 -21 5 -211 53 -394 89 -338 239 -607 471 -847 76
-80 140 -133 157 -133 6 0 11 -5 11 -12 0 -6 3 -9 6 -6 3 3 -7 48 -22 99 -14
52 -30 132 -34 179 -10 114 -82 505 -95 518 -2 2 -31 -12 -65 -32 -34 -20 -78
-43 -97 -51 -25 -11 -33 -19 -29 -31 3 -9 9 -27 12 -40 7 -28 23 -29 79 -9 92
33 99 7 20 -71 -46 -46 -59 -53 -81 -48 -55 14 -131 192 -141 332 l-6 82 27 0
c14 0 26 -6 27 -12 2 -33 32 -118 41 -118 5 0 8 4 8 9 0 14 64 48 127 67 32
10 59 19 61 19 5 3 -42 133 -65 180 -63 126 -170 243 -268 292 -51 26 -181 44
-197 27z"/>
<path d="M1630 4498 c-90 -92 -130 -198 -137 -368 -8 -170 26 -317 111 -491
76 -153 180 -290 287 -380 l48 -40 31 35 c20 23 44 38 67 42 52 10 59 -6 24
-57 -49 -71 -47 -77 43 -125 123 -66 204 -88 295 -80 86 7 121 14 121 27 0 5
-24 21 -52 35 -137 69 -310 222 -428 379 -61 81 -230 401 -230 437 0 10 -2 18
-4 18 -2 0 -27 -23 -57 -50 -40 -39 -59 -50 -78 -48 -22 3 -26 7 -23 33 6 51
69 132 114 147 10 4 8 25 -9 94 -29 116 -53 258 -53 314 0 58 -11 120 -20 120
-4 0 -27 -19 -50 -42z"/>
<path d="M685 3665 c-75 -17 -153 -47 -205 -80 -22 -14 -44 -25 -50 -25 -5 0
-10 -3 -10 -7 0 -5 -19 -21 -43 -37 -118 -80 -260 -322 -310 -526 -38 -155
-47 -246 -42 -430 3 -91 6 -172 6 -180 3 -43 62 -305 84 -375 138 -432 395
-838 746 -1180 170 -166 302 -271 529 -422 182 -122 310 -189 470 -247 69 -24
133 -48 144 -52 10 -4 -17 26 -60 66 -119 110 -222 218 -367 385 -53 62 -175
229 -249 341 -78 120 -275 474 -263 474 2 0 -17 46 -42 103 -25 56 -60 144
-77 195 l-32 94 -49 21 c-105 44 -213 131 -303 245 -41 53 -91 167 -117 268
-30 121 -13 316 33 380 21 29 59 29 54 -1 -13 -77 -12 -168 2 -226 19 -75 74
-185 124 -249 41 -53 127 -136 155 -152 19 -10 19 -8 13 23 -23 117 -30 212
-31 444 0 269 6 335 30 335 17 0 18 -10 39 -245 16 -179 54 -392 99 -555 l23
-85 55 -3 c93 -5 167 41 254 160 100 134 116 386 40 627 -14 43 -36 95 -50
115 -14 20 -25 41 -25 46 0 18 36 10 57 -12 51 -55 131 -238 164 -375 28 -113
30 -295 5 -398 -44 -183 -210 -350 -367 -371 -29 -4 -49 -12 -49 -19 0 -37
152 -360 242 -513 26 -45 48 -87 48 -92 0 -6 5 -10 10 -10 6 0 10 -5 10 -10 0
-9 115 -183 147 -225 5 -5 26 -35 48 -65 60 -82 180 -226 259 -310 134 -141
298 -300 311 -300 23 0 442 426 562 571 280 340 326 400 613 810 89 127 89
126 39 180 -153 164 -157 328 -13 591 97 176 260 349 420 444 83 49 118 57
185 43 74 -16 137 -71 179 -155 29 -59 34 -80 38 -165 9 -198 -63 -498 -154
-634 -18 -29 -34 -55 -34 -59 0 -19 -65 -96 -108 -128 -83 -64 -162 -76 -340
-56 -20 3 -29 -8 -61 -67 -20 -38 -63 -110 -95 -160 -230 -357 -304 -458 -606
-829 -57 -71 -176 -198 -333 -358 l-148 -150 24 -24 c49 -49 96 -54 244 -25
54 11 125 24 158 29 33 6 134 31 225 56 135 36 192 58 315 120 284 141 570
350 802 584 239 240 444 524 564 782 17 36 37 79 46 95 64 127 146 438 164
620 39 402 -62 763 -278 990 -79 83 -194 154 -318 196 -62 21 -87 24 -230 24
-135 0 -173 -4 -243 -23 -356 -97 -739 -401 -976 -774 -48 -76 -258 -507 -284
-583 -11 -33 -23 -77 -27 -97 -9 -47 -19 -48 -35 -5 -109 287 -193 447 -398
757 -147 224 -216 311 -343 437 -212 209 -418 336 -646 399 -117 32 -274 40
-368 19z"/>
</g>
</svg>
